<svg xmlns="http://www.w3.org/2000/svg" width="85.611" height="72.093" viewBox="0 0 85.611 72.093">
  <g data-name="Group 661" transform="translate(-1093 -5606)">
    <g transform="translate(1093 5606)" fill="none">
      <path d="M22.529,0H45.058L22.529,72.093H0Z" stroke="none"/>
      <path d="M 23.26432037353516 1 L 1.360191345214844 71.09322357177734 L 21.79394149780273 71.09322357177734 L 43.69807052612305 1 L 23.26432037353516 1 M 22.52913093566895 0 L 45.05826187133789 0 L 22.52913093566895 72.09322357177734 L 0 72.09322357177734 L 22.52913093566895 0 Z" stroke="none" fill="#000"/>
    </g>
    <g data-name="gradient_kockast" transform="translate(1133.552 5606)" fill="none">
      <path d="M22.529,0H45.058L22.529,72.093H0Z" stroke="none"/>
      <path d="M 23.26432037353516 1 L 1.360191345214844 71.09322357177734 L 21.79394149780273 71.09322357177734 L 43.69807052612305 1 L 23.26432037353516 1 M 22.52913093566895 0 L 45.05826187133789 0 L 22.52913093566895 72.09322357177734 L 0 72.09322357177734 L 22.52913093566895 0 Z" stroke="none" fill="#000"/>
    </g>
  </g>
</svg>
