<svg version="1.1" xmlns="http://www.w3.org/2000/svg" xmlns:xlink="http://www.w3.org/1999/xlink" x="0px" y="0px"
	 width="95px" height="95px" viewBox="0 0 95 95" style="enable-background:new 0 0 95 95;" xml:space="preserve">
<path d="M57.7,1.1c-0.6-0.1-1.3-0.3-1.9-0.4l-6.4,27.5L48.5,0c-0.3,0-0.7,0-1,0s-0.7,0-1,0l-0.9,28.2
	L39.2,0.7c-0.6,0.1-1.3,0.2-1.9,0.4L41.9,29L30.2,3.3C29.6,3.5,29,3.7,28.4,4l10,26.5l-16.5-23c-0.6,0.4-1.1,0.7-1.6,1.1l14.9,24
	L14.6,13.2c-0.5,0.5-0.9,0.9-1.4,1.4l19.3,20.6l-24-14.9c-0.4,0.5-0.7,1.1-1.1,1.6l23,16.5L4,28.4c-0.3,0.6-0.5,1.2-0.8,1.8L29,41.9
	L1.1,37.3c-0.1,0.6-0.3,1.3-0.4,1.9l27.5,6.4L0,46.5c0,0.3,0,0.7,0,1c0,0.3,0,0.7,0,1l28.2,0.9L0.7,55.8c0.1,0.6,0.2,1.3,0.4,1.9
	L29,53.1L3.3,64.8C3.5,65.4,3.7,66,4,66.6l26.5-10l-23,16.5c0.4,0.6,0.7,1.1,1.1,1.6l24-14.9L13.2,80.4c0.5,0.5,0.9,0.9,1.4,1.4
	l20.6-19.3l-14.9,24c0.5,0.4,1.1,0.7,1.6,1.1l16.5-23L28.4,91c0.6,0.3,1.2,0.5,1.8,0.8L41.9,66l-4.6,27.9c0.6,0.1,1.3,0.3,1.9,0.4
	l6.4-27.5L46.5,95c0.3,0,0.7,0,1,0s0.7,0,1,0l0.9-28.2l6.4,27.5c0.6-0.1,1.3-0.2,1.9-0.4L53.1,66l11.7,25.8c0.6-0.2,1.2-0.5,1.8-0.8
	l-10-26.5l16.5,23c0.6-0.4,1.1-0.7,1.6-1.1l-14.9-24l20.6,19.3c0.5-0.5,0.9-0.9,1.4-1.4L62.4,59.8l24,14.9c0.4-0.5,0.7-1.1,1.1-1.6
	l-23-16.5l26.5,10c0.3-0.6,0.5-1.2,0.8-1.8L66,53.1l27.9,4.6c0.1-0.6,0.3-1.3,0.4-1.9l-27.5-6.4L95,48.5c0-0.3,0-0.7,0-1
	c0-0.3,0-0.7,0-1l-28.2-0.9l27.5-6.4c-0.1-0.6-0.2-1.3-0.4-1.9L66,41.9l25.8-11.7c-0.2-0.6-0.5-1.2-0.8-1.8l-26.5,10l23-16.5
	c-0.4-0.6-0.7-1.1-1.1-1.6l-24,14.9l19.3-20.6c-0.5-0.5-0.9-0.9-1.4-1.4L59.8,32.6l14.9-24c-0.5-0.4-1.1-0.7-1.6-1.1l-16.5,23
	L66.6,4c-0.6-0.3-1.2-0.5-1.8-0.8L53.1,29L57.7,1.1z"/>
</svg>